<svg width="535" height="571" viewBox="0 0 535 571" fill="none" xmlns="http://www.w3.org/2000/svg">
<g clip-path="url(#clip0_309_4)">
<path d="M445.5 274.5C445.5 350.219 425.542 418.746 393.299 468.328C361.054 517.915 316.566 548.5 267.5 548.5C218.434 548.5 173.946 517.915 141.701 468.328C109.458 418.746 89.5 350.219 89.5 274.5C89.5 198.781 109.458 130.254 141.701 80.6718C173.946 31.0846 218.434 0.5 267.5 0.5C316.566 0.5 361.054 31.0846 393.299 80.6718C425.542 130.254 445.5 198.781 445.5 274.5Z" fill="black" stroke="#FBFF40"/>
<g style="mix-blend-mode:screen" filter="url(#filter0_i_309_4)">
<path d="M267 413C322.228 413 367 332.859 367 234C367 135.141 322.228 55 267 55C211.772 55 167 135.141 167 234C167 332.859 211.772 413 267 413Z" fill="#171717"/>
<path d="M366.5 234C366.5 283.36 355.322 328.023 337.274 360.328C319.218 392.65 294.352 412.5 267 412.5C239.648 412.5 214.782 392.65 196.726 360.328C178.678 328.023 167.5 283.36 167.5 234C167.5 184.64 178.678 139.977 196.726 107.672C214.782 75.3503 239.648 55.5 267 55.5C294.352 55.5 319.218 75.3503 337.274 107.672C355.322 139.977 366.5 184.64 366.5 234Z" stroke="#FBFF40"/>
</g>
<path d="M108 234.5H427C486.371 234.5 534.5 282.629 534.5 342V463C534.5 522.371 486.371 570.5 427 570.5H108C48.6294 570.5 0.5 522.371 0.5 463V342C0.5 282.629 48.6294 234.5 108 234.5Z" fill="black" stroke="#FBFF40"/>
<path d="M173 313.5H361C364.038 313.5 366.5 315.962 366.5 319V487C366.5 490.038 364.038 492.5 361 492.5H173C169.962 492.5 167.5 490.038 167.5 487V319C167.5 315.962 169.962 313.5 173 313.5Z" fill="#171717" stroke="#FBFF40"/>
</g>
<defs>
<filter id="filter0_i_309_4" x="167" y="55" width="200" height="362" filterUnits="userSpaceOnUse" color-interpolation-filters="sRGB">
<feFlood flood-opacity="0" result="BackgroundImageFix"/>
<feBlend mode="normal" in="SourceGraphic" in2="BackgroundImageFix" result="shape"/>
<feColorMatrix in="SourceAlpha" type="matrix" values="0 0 0 0 0 0 0 0 0 0 0 0 0 0 0 0 0 0 127 0" result="hardAlpha"/>
<feOffset dy="4"/>
<feGaussianBlur stdDeviation="2"/>
<feComposite in2="hardAlpha" operator="arithmetic" k2="-1" k3="1"/>
<feColorMatrix type="matrix" values="0 0 0 0 0 0 0 0 0 0 0 0 0 0 0 0 0 0 0.25 0"/>
<feBlend mode="normal" in2="shape" result="effect1_innerShadow_309_4"/>
</filter>
<clipPath id="clip0_309_4">
<rect width="535" height="571" fill="white"/>
</clipPath>
</defs>
</svg>
